<svg xmlns="http://www.w3.org/2000/svg" version="1.1" xmlns:xlink="http://www.w3.org/1999/xlink" width="1500" height="223" viewBox="0 0 1500 223"><svg xml:space="preserve" width="1500" height="223" data-version="2" data-id="lg_IGbMq8X96B25Ru7PLz" viewBox="0 0 571 223" x="0" y="0"><rect width="100%" height="100%" fill="transparent"></rect><ellipse fill="#005c04" rx="140.58" ry="68" transform="matrix(1.9917 0 0 1.6116 285.5 111.5)"></ellipse><g transform="translate(285.76 109.28)scale(.8265)"><filter id="a" width="140%" height="140%" x="-20%" y="-20%"><feGaussianBlur in="SourceAlpha"></feGaussianBlur><feOffset result="oBlur"></feOffset><feFlood flood-color="#B73700" flood-opacity="1"></feFlood><feComposite in2="oBlur" operator="in"></feComposite><feMerge><feMergeNode></feMergeNode><feMergeNode in="SourceGraphic"></feMergeNode></feMerge></filter><rect width="632.71" height="135.78" x="-316.35" y="-67.89" fill="#fff" filter="url(#a)" paint-order="stroke" rx="84" ry="84"></rect></g><path fill="#007906" d="M133.06 116.96q1.13.65 2.34 1.18 1.22.52 2.52.77 1.29.24 2.43.24 2.51 0 4.25-1.22 1.74-1.21 1.74-3.8V84.32h33.61v37.18q0 7.04-2.34 11.86-2.35 4.82-6.32 7.74t-8.91 4.21q-4.94 1.3-10.13 1.3-5.51 0-10.37-.97-4.86-.98-8.82-3.33Z"></path><rect width="46.89" height="62.29" x="-23.45" y="-31.14" fill="none" rx="0" ry="0" transform="translate(157 115.97)"></rect><path fill="#007906" d="M245.81 84.32q1.46 5.02 2.87 10.08 1.42 5.07 2.84 10.13 1.42 5.06 2.87 10.12 1.46 5.07 2.88 10.13 1.42 5.06 2.83 10.12 1.42 5.07 2.88 10.17h-36.13l-1.37-7.94h-11.02l-1.38 7.94H178.5q1.45-5.1 2.87-10.17l2.84-10.12q1.41-5.06 2.83-10.13l2.84-10.12q1.41-5.06 2.83-10.13 1.42-5.06 2.8-10.08Zm-30.38 47.06v.08h8.99q.08 0 .08-.04v-.04l-.32-1.98q-.32-1.99-.85-5.03-.53-3.03-1.09-6.48-.57-3.44-1.06-6.52-.48-3.08-.85-5.02l-.36-1.94h-.08l-.33 1.94q-.32 1.94-.85 5.02-.52 3.08-1.09 6.52-.57 3.45-1.05 6.48l-.81 5.03z"></path><rect width="84.48" height="60.75" x="-42.24" y="-30.38" fill="none" rx="0" ry="0" transform="translate(221.24 115.2)"></rect><path fill="#007906" d="M304.45 147.5q-6.4 0-11.82-.81-5.43-.81-10.01-2.35-4.57-1.54-8.18-3.73-3.6-2.18-6.36-4.94-2.75-2.75-4.57-6.03-1.83-3.28-2.72-7.01-.89-3.72-.89-7.86 0-6.72 2.19-12.06 2.19-5.35 6.19-9.24 4.01-3.89 9.56-6.48 5.55-2.59 12.27-3.85 6.73-1.25 14.34-1.25 13.45 0 22.84 3.24 9.4 3.24 14.87 9.31 5.46 6.08 6.84 14.75l-34.42 5.58q0-1.86-.81-3.19-.81-1.34-2.19-2.15-1.38-.81-3.2-1.22-1.82-.4-3.93-.4-2.91 0-5.18.77-2.27.77-3.61 2.27-1.33 1.49-1.33 3.76 0 1.38.48 2.51.49 1.14 1.38 1.99.89.85 2.15 1.38 1.25.52 2.79.81 1.54.28 3.32.28 4.29 0 7.21-1.74t2.92-5.07l34.42 3.49q-.89 5.99-3.93 11.26-3.03 5.26-8.42 9.31-5.39 4.05-13.37 6.36-7.97 2.31-18.83 2.31"></path><rect width="89.1" height="65.61" x="-44.55" y="-32.8" fill="none" rx="0" ry="0" transform="translate(304.95 115.2)"></rect><path fill="#007906" d="M351.59 84.32h63.75q5.43 0 8.99 2.06 3.57 2.07 5.39 5.31 1.82 3.24 1.82 6.8 0 3.57-1.86 6.93-1.87 3.36-5.63 5.47-3.77 2.1-9.44 2.1h-.04q-.04 0 0 .04l.04.04q6.56 0 10.86 2.35 4.29 2.35 6.39 6 2.11 3.64 2.11 7.69 0 3-1.17 5.83-1.18 2.84-3.53 5.15-2.35 2.31-5.83 3.64-3.48 1.34-8.1 1.34h-63.75V92.74zm31.92 31.91v7.21h11.58q2.19 0 3.28-1.13 1.09-1.14 1.09-2.59 0-.73-.24-1.34-.24-.61-.69-1.13-.44-.53-1.13-.81-.69-.29-1.58-.29h-12.23l-.04.04zm.08-11.42q-.08 0-.08.04v7.25h11.18q1.45 0 2.43-.52.97-.53 1.45-1.38.49-.85.49-1.82 0-1.38-.93-2.47-.93-1.1-2.72-1.1Z"></path><rect width="82.38" height="60.75" x="-41.19" y="-30.38" fill="none" rx="0" ry="0" transform="translate(393.28 115.2)"></rect><path fill="#fff" d="M236.6 195.37q-.85 0-1.53-.26-.67-.27-1.14-.78-.47-.52-.72-1.27-.24-.75-.24-1.71 0-.97.25-1.74.25-.78.72-1.33t1.13-.85q.66-.29 1.47-.29.63 0 1.16.17.52.18.91.51t.61.8q.22.46.23 1.04l-1.05.26q.02-.61-.25-1.01-.26-.4-.69-.61-.44-.2-.94-.2-.47 0-.91.19-.43.18-.77.57-.34.39-.53 1-.2.6-.2 1.46 0 1.09.32 1.76.31.67.89.99.58.32 1.33.32.73 0 1.18-.27.44-.27.66-.76.21-.48.25-1.12l.98.18q-.01.6-.19 1.14-.18.54-.55.95-.37.41-.96.63-.59.23-1.42.23"></path><rect width="6.75" height="8.23" x="-3.38" y="-4.12" fill="none" rx="0" ry="0" transform="translate(236.84 191.75)"></rect><path fill="#fff" d="M244.49 195.37q-.87 0-1.52-.29-.65-.28-1.1-.82-.45-.54-.68-1.29-.23-.75-.23-1.69 0-1.37.46-2.29.45-.91 1.26-1.38.8-.47 1.82-.47.8 0 1.45.28.65.27 1.11.81.46.54.72 1.32.25.77.25 1.75 0 .93-.24 1.68-.23.75-.68 1.28-.45.54-1.1.82-.66.29-1.52.29m.01-.95q.77 0 1.3-.36.54-.37.82-1.06.28-.69.28-1.67 0-1.02-.29-1.74-.29-.71-.83-1.09-.54-.39-1.3-.39-.74 0-1.28.37-.54.38-.82 1.08-.29.71-.29 1.74 0 .75.16 1.33.16.58.47.98.3.41.75.61t1.03.2"></path><rect width="7.07" height="8.23" x="-3.54" y="-4.12" fill="none" rx="0" ry="0" transform="translate(245 191.75)"></rect><path fill="#fff" d="M250.39 195.22v-.95h2.34q.82 0 1.35-.38.52-.38.78-1.05t.26-1.56q0-.78-.16-1.36-.16-.57-.5-.94-.34-.36-.85-.55-.51-.19-1.2-.19h-2.02v-.94h1.99q1.35 0 2.2.46.85.47 1.26 1.35.41.87.41 2.09 0 .8-.18 1.45-.17.65-.49 1.13-.32.48-.75.79-.43.32-.96.48-.53.17-1.1.17Zm-.59 0v-7.92h1.11v7.92Z"></path><rect width="6.45" height="7.92" x="-3.23" y="-3.96" fill="none" rx="0" ry="0" transform="translate(253.53 191.76)"></rect><path fill="#fff" d="M258.02 195.22v-7.92h1.12v7.92Z"></path><rect width="1.12" height="7.92" x="-.56" y="-3.96" fill="none" rx="0" ry="0" transform="translate(259.08 191.76)"></rect><path fill="#fff" d="M261.2 195.22v-7.92h1.47l4.17 6.46h.1l-.08-6.46h1.06v7.92h-1.33l-4.28-6.62h-.11l.08 6.62Z"></path><rect width="6.72" height="7.92" x="-3.36" y="-3.96" fill="none" rx="0" ry="0" transform="translate(265.06 191.76)"></rect><path fill="#fff" d="M273.06 195.37q-.97 0-1.73-.45-.77-.45-1.2-1.35-.43-.9-.43-2.28 0-.97.24-1.73t.7-1.3q.46-.54 1.14-.83.67-.29 1.56-.29.66 0 1.19.17.53.17.93.48.4.31.64.77.25.45.31 1.03l-1.06.3q-.05-.65-.35-1.04t-.74-.57q-.44-.18-.95-.18-.73 0-1.28.32-.55.33-.87 1.03-.31.7-.31 1.82 0 .87.19 1.47.2.6.52.97t.76.53q.44.16.93.16.64 0 1.09-.24.46-.24.74-.73.28-.48.36-1.23h-1.82v-.87h2.91v3.89h-.9l.23-2.16h-.18q-.16.78-.49 1.29-.33.51-.85.76-.52.26-1.28.26"></path><rect width="6.83" height="8.23" x="-3.42" y="-4.12" fill="none" rx="0" ry="0" transform="translate(273.62 191.75)"></rect><path fill="#fff" d="M281.4 195.22v-7.92h2.9q.66 0 1.21.12.55.12.93.36.38.25.59.64.21.4.21.95 0 .46-.18.81-.18.34-.57.56-.39.22-1.02.34v.13q1.1.09 1.6.6.5.5.5 1.32 0 .67-.32 1.13-.32.46-.97.71-.66.25-1.69.25Zm1.06-.94h2.24q.9 0 1.34-.31.44-.3.44-.94 0-.73-.61-1.1-.61-.36-1.83-.36h-1.58Zm0-3.53h1.36q1.18 0 1.76-.32.57-.31.57-.95 0-.64-.5-.95-.49-.31-1.5-.31h-1.69Z"></path><rect width="6.17" height="7.92" x="-3.08" y="-3.96" fill="none" rx="0" ry="0" transform="translate(284.99 191.76)"></rect><path fill="#fff" d="M292.52 195.37q-.64 0-1.17-.14-.53-.13-.93-.4-.39-.27-.66-.66-.27-.38-.41-.87-.14-.5-.14-1.1v-4.9h1.11v4.87q0 .72.25 1.2.25.49.74.74t1.21.25q.75 0 1.23-.24.49-.25.74-.74.24-.49.24-1.21v-4.87h1.09v4.9q0 1.52-.84 2.34-.84.83-2.46.83"></path><rect width="6.61" height="8.07" x="-3.31" y="-4.04" fill="none" rx="0" ry="0" transform="translate(293.01 191.84)"></rect><path fill="#fff" d="M300.61 195.37q-.79 0-1.38-.17-.6-.16-1-.49-.4-.33-.59-.81-.2-.48-.17-1.12l.99-.22q-.04.63.21 1.05.25.42.77.63.51.21 1.21.21.67 0 1.14-.17.47-.17.7-.47.23-.3.23-.68 0-.43-.27-.69-.28-.25-.74-.39-.46-.13-1.03-.25-.55-.12-1.1-.28-.55-.16-.99-.4-.44-.25-.71-.65-.27-.4-.27-1.03 0-.7.36-1.22.35-.52 1-.8t1.52-.28q.87 0 1.54.28.68.27 1.08.81.39.53.42 1.31l-1.03.25q0-.43-.15-.76t-.42-.54q-.26-.21-.63-.32-.38-.12-.82-.12-.54 0-.95.17-.41.17-.63.46-.23.28-.23.68 0 .47.33.74t.86.42q.52.16 1.12.29.52.11 1.02.26.5.15.9.4.41.24.65.64.24.39.24 1.01 0 .68-.35 1.18-.36.51-1.06.79-.71.28-1.77.28"></path><rect width="6.33" height="8.23" x="-3.17" y="-4.12" fill="none" rx="0" ry="0" transform="translate(301.12 191.75)"></rect><path fill="#fff" d="M305.46 195.22v-7.92h1.12v7.92Z"></path><rect width="1.12" height="7.92" x="-.56" y="-3.96" fill="none" rx="0" ry="0" transform="translate(306.52 191.76)"></rect><path fill="#fff" d="M308.64 195.22v-7.92h1.46l4.18 6.46h.1l-.09-6.46h1.07v7.92h-1.33l-4.29-6.62h-.1l.08 6.62Z"></path><rect width="6.72" height="7.92" x="-3.36" y="-3.96" fill="none" rx="0" ry="0" transform="translate(312.5 191.76)"></rect><path fill="#fff" d="M317.42 195.22v-7.92h1.11v7.92Zm.57 0v-.95h4.99v.95Zm0-3.6v-.89h4.43v.89Zm0-3.39v-.93h4.98v.93Z"></path><rect width="5.56" height="7.92" x="-2.78" y="-3.96" fill="none" rx="0" ry="0" transform="translate(320.7 191.76)"></rect><path fill="#fff" d="M327.22 195.37q-.8 0-1.39-.17-.59-.16-1-.49-.4-.33-.59-.81-.19-.48-.17-1.12l1-.22q-.05.63.2 1.05.25.42.77.63.52.21 1.21.21.67 0 1.14-.17.47-.17.7-.47.24-.3.24-.68 0-.43-.28-.69-.27-.25-.74-.39-.46-.13-1.02-.25-.55-.12-1.11-.28-.55-.16-.99-.4-.43-.25-.7-.65-.27-.4-.27-1.03 0-.7.35-1.22t1-.8q.65-.28 1.53-.28.86 0 1.54.28.68.27 1.07.81.4.53.42 1.31l-1.03.25q0-.43-.15-.76t-.41-.54q-.27-.21-.64-.32-.37-.12-.82-.12-.54 0-.94.17-.41.17-.64.46-.23.28-.23.68 0 .47.33.74t.86.42q.53.16 1.13.29.51.11 1.01.26.5.15.91.4.41.24.65.64.24.39.24 1.01 0 .68-.36 1.18-.35.51-1.06.79-.71.28-1.76.28"></path><rect width="6.34" height="8.23" x="-3.17" y="-4.12" fill="none" rx="0" ry="0" transform="translate(327.73 191.75)"></rect><path fill="#fff" d="M334.97 195.37q-.79 0-1.39-.17-.59-.16-.99-.49-.41-.33-.6-.81-.19-.48-.17-1.12l1-.22q-.05.63.2 1.05.26.42.77.63.52.21 1.21.21.68 0 1.14-.17.47-.17.71-.47.23-.3.23-.68 0-.43-.28-.69-.27-.25-.73-.39-.47-.13-1.03-.25-.55-.12-1.1-.28-.56-.16-.99-.4-.44-.25-.71-.65-.27-.4-.27-1.03 0-.7.35-1.22.36-.52 1-.8.65-.28 1.53-.28.86 0 1.54.28.68.27 1.07.81.4.53.42 1.31l-1.03.25q0-.43-.15-.76t-.41-.54q-.27-.21-.64-.32-.37-.12-.81-.12-.54 0-.95.17-.41.17-.64.46-.23.28-.23.68 0 .47.33.74t.86.42q.53.16 1.13.29.52.11 1.01.26.5.15.91.4.41.24.65.64.24.39.24 1.01 0 .68-.36 1.18-.35.51-1.06.79-.71.28-1.76.28"></path><rect width="6.34" height="8.23" x="-3.17" y="-4.12" fill="none" rx="0" ry="0" transform="translate(335.48 191.75)"></rect><path fill="#fff" d="m243.77 33.13-.17-1.04q.13.02.24.02h.19q.65 0 .98-.2.33-.2.45-.62.12-.41.12-1.02v-5.16h1.09v5.17q0 .86-.22 1.51t-.76 1q-.54.36-1.52.36h-.16q-.1 0-.24-.02"></path><rect width="3.07" height="8.04" x="-1.53" y="-4.02" fill="none" rx="0" ry="0" transform="translate(245.63 29.63)"></rect><path fill="#fff" d="M251.97 33.18q-.64 0-1.17-.14-.53-.13-.93-.4-.39-.27-.66-.66-.27-.38-.41-.87-.14-.5-.14-1.1v-4.9h1.11v4.87q0 .72.25 1.2.25.49.74.74t1.21.25q.75 0 1.23-.24.49-.25.74-.74.24-.49.24-1.21v-4.87h1.09v4.9q0 1.52-.84 2.34-.84.83-2.46.83"></path><rect width="6.61" height="8.07" x="-3.31" y="-4.04" fill="none" rx="0" ry="0" transform="translate(252.47 29.64)"></rect><path fill="#fff" d="M260.06 33.18q-.79 0-1.38-.17-.6-.16-1-.49-.4-.33-.59-.81-.2-.48-.17-1.12l.99-.22q-.04.63.21 1.05.25.42.77.63.51.21 1.21.21.67 0 1.14-.17.47-.17.7-.47.23-.3.23-.68 0-.43-.27-.69-.28-.25-.74-.39-.46-.13-1.03-.25-.55-.12-1.1-.28-.55-.16-.99-.4-.44-.25-.71-.65-.27-.4-.27-1.03 0-.7.36-1.22.35-.52 1-.8t1.52-.28q.87 0 1.54.28.68.27 1.08.81.39.53.42 1.31l-1.03.25q0-.43-.15-.76t-.42-.54q-.26-.21-.63-.32-.38-.12-.82-.12-.54 0-.95.17-.41.17-.63.46-.23.28-.23.68 0 .47.33.74t.86.42q.52.16 1.12.29.52.11 1.02.26.5.15.9.4.41.24.65.64.24.39.24 1.01 0 .68-.35 1.18-.36.51-1.06.79-.71.28-1.77.28"></path><rect width="6.33" height="8.23" x="-3.17" y="-4.12" fill="none" rx="0" ry="0" transform="translate(260.57 29.57)"></rect><path fill="#fff" d="M266.43 33.03v-7.92h1.11v7.92Zm-2.41-6.96v-.96h5.93v.96Z"></path><rect width="5.93" height="7.92" x="-2.96" y="-3.96" fill="none" rx="0" ry="0" transform="translate(267.49 29.57)"></rect><path fill="#fff" d="m273.65 33.03 2.78-7.92h1.61l2.78 7.92h-1.19l-2.32-7h-.15l-2.33 7Zm1.32-1.78v-.84h4.66v.84Z"></path><rect width="7.17" height="7.92" x="-3.58" y="-3.96" fill="none" rx="0" ry="0" transform="translate(277.74 29.57)"></rect><path fill="#fff" d="M282.2 33.03v-7.92h1.47l4.17 6.46h.1l-.09-6.46h1.07v7.92h-1.33l-4.28-6.62h-.11l.08 6.62Z"></path><rect width="6.72" height="7.92" x="-3.36" y="-3.96" fill="none" rx="0" ry="0" transform="translate(286.06 29.57)"></rect><path fill="#fff" d="M294.23 33.18q-.87 0-1.52-.29-.66-.28-1.11-.82-.45-.54-.67-1.29-.23-.75-.23-1.69 0-1.37.45-2.29.46-.91 1.26-1.38.81-.47 1.83-.47.8 0 1.45.28.65.27 1.11.81.46.54.71 1.32.26.77.26 1.75 0 .93-.24 1.68-.23.75-.68 1.28-.45.54-1.11.82-.65.29-1.51.29m.01-.95q.77 0 1.3-.36.53-.37.82-1.06.28-.69.28-1.67 0-1.02-.29-1.74-.29-.71-.83-1.09-.54-.39-1.31-.39-.73 0-1.27.37-.54.38-.83 1.08-.28.71-.28 1.74 0 .75.16 1.33.16.58.47.98.3.41.75.61t1.03.2"></path><rect width="7.07" height="8.23" x="-3.54" y="-4.12" fill="none" rx="0" ry="0" transform="translate(294.74 29.57)"></rect><path fill="#fff" d="M300.91 33.03v-7.92h1.1v7.92Zm-2.41-6.96v-.96h5.93v.96Z"></path><rect width="5.93" height="7.92" x="-2.96" y="-3.96" fill="none" rx="0" ry="0" transform="translate(301.96 29.57)"></rect><path fill="#fff" d="M311.01 33.03v-7.92h1.11v7.92Zm-5.25 0v-7.92h1.1v7.92Zm.55-3.58v-.95h5.15v.95Z"></path><rect width="6.36" height="7.92" x="-3.18" y="-3.96" fill="none" rx="0" ry="0" transform="translate(309.44 29.57)"></rect><path fill="#fff" d="M314.17 33.03v-7.92h1.1v7.92Zm.56 0v-.95h5v.95Zm0-3.6v-.89h4.43v.89Zm0-3.39v-.93h4.98v.93Z"></path><rect width="5.56" height="7.92" x="-2.78" y="-3.96" fill="none" rx="0" ry="0" transform="translate(317.45 29.57)"></rect><path fill="#fff" d="M321.23 33.03v-7.92h2.76q.6 0 1.09.09.5.1.89.29.39.19.66.47.27.27.41.64.14.37.14.81 0 .42-.13.77-.12.35-.38.61-.25.26-.62.43-.37.16-.86.22v.15q.43.05.75.23.33.18.55.52.23.35.4.91l.5 1.78h-1.18l-.41-1.62q-.11-.5-.37-.8-.26-.3-.64-.44t-.9-.14h-1.56v3Zm1.1-3.9h1.56q1.07 0 1.61-.39.55-.38.55-1.17 0-.8-.52-1.17-.52-.38-1.62-.38h-1.58Z"></path><rect width="6.16" height="7.92" x="-3.08" y="-3.96" fill="none" rx="0" ry="0" transform="translate(324.81 29.57)"></rect></svg></svg>