<?xml version="1.0" encoding="UTF-8"?>
<svg id="Layer_2" data-name="Layer 2" xmlns="http://www.w3.org/2000/svg" viewBox="0 0 380.3 797.09">
  <defs>
    <style>
      .cls-1 {
        font-family: 'Bricolage Grotesque', sans-serif;
        font-size: 6px;
      }
    </style>
  </defs>
  <g id="Layer_2-2" data-name="Layer 2">
    <text class="cls-1" transform="translate(372.9 772.11) rotate(94.75) scale(.99 1)"><tspan x="0" y="0">J</tspan></text>
    <text class="cls-1" transform="translate(372.91 774.94) rotate(109.32) scale(.99 1)"><tspan x="0" y="0">U</tspan></text>
    <text class="cls-1" transform="translate(370.93 780.56) rotate(127.61) scale(.99 1)"><tspan x="0" y="0">S</tspan></text>
    <text class="cls-1" transform="translate(367.77 784.68) rotate(143.08) scale(.99 1)"><tspan x="0" y="0">T</tspan></text>
    <text class="cls-1" transform="translate(364.05 787.35) rotate(153.84) scale(.99 1)"><tspan x="0" y="0"> </tspan></text>
    <text class="cls-1" transform="translate(362.37 788.43) rotate(166.2) scale(.99 1)"><tspan x="0" y="0">A</tspan></text>
    <text class="cls-1" transform="translate(356.96 789.62) rotate(-180) scale(.99 1)"><tspan x="0" y="0">N</tspan><tspan x="6.61" y="0">O</tspan><tspan x="12.79" y="0">T</tspan><tspan x="17.71" y="0">H</tspan><tspan x="24.06" y="0">E</tspan><tspan x="29.36" y="0">R</tspan><tspan x="35.25" y="0"> </tspan><tspan x="37.53" y="0">C</tspan><tspan x="43.54" y="0">O</tspan><tspan x="49.98" y="0">D</tspan><tspan x="56.17" y="0">I</tspan><tspan x="58.56" y="0">N</tspan><tspan x="65.17" y="0">G</tspan><tspan x="71.49" y="0"> </tspan><tspan x="73.78" y="0">B</tspan><tspan x="79.71" y="0">U</tspan><tspan x="86.15" y="0">S</tspan><tspan x="91.89" y="0">I</tspan><tspan x="94.3" y="0">N</tspan><tspan x="100.89" y="0">E</tspan><tspan x="106.19" y="0">S</tspan><tspan x="112.03" y="0">S</tspan><tspan x="117.76" y="0"> </tspan><tspan x="120.06" y="0">-</tspan><tspan x="123.05" y="0"> </tspan><tspan x="125.36" y="0">J</tspan><tspan x="128.53" y="0">U</tspan><tspan x="134.97" y="0">S</tspan><tspan x="140.59" y="0">T</tspan><tspan x="145.52" y="0"> </tspan><tspan x="147.82" y="0">A</tspan><tspan x="153.75" y="0">N</tspan><tspan x="160.36" y="0">O</tspan><tspan x="166.56" y="0">T</tspan><tspan x="171.47" y="0">H</tspan><tspan x="177.8" y="0">E</tspan><tspan x="183.12" y="0">R</tspan><tspan x="189" y="0"> </tspan><tspan x="191.28" y="0">C</tspan><tspan x="197.31" y="0">O</tspan><tspan x="203.76" y="0">D</tspan><tspan x="209.93" y="0">I</tspan><tspan x="212.35" y="0">N</tspan><tspan x="218.95" y="0">G</tspan><tspan x="225.25" y="0"> </tspan><tspan x="227.54" y="0">B</tspan><tspan x="233.48" y="0">U</tspan><tspan x="239.92" y="0">S</tspan><tspan x="245.66" y="0">I</tspan><tspan x="248.05" y="0">N</tspan><tspan x="254.66" y="0">E</tspan><tspan x="259.96" y="0">S</tspan><tspan x="265.78" y="0">S</tspan><tspan x="271.53" y="0"> </tspan><tspan x="273.83" y="0">-</tspan><tspan x="276.82" y="0"> </tspan><tspan x="279.13" y="0">J</tspan><tspan x="282.3" y="0">U</tspan><tspan x="288.75" y="0">S</tspan><tspan x="294.35" y="0">T</tspan><tspan x="299.29" y="0"> </tspan><tspan x="301.57" y="0">A</tspan><tspan x="307.51" y="0">N</tspan><tspan x="314.13" y="0">O</tspan><tspan x="320.34" y="0">T</tspan><tspan x="325.24" y="0">H</tspan><tspan x="331.58" y="0">E</tspan></text>
    <text class="cls-1" transform="translate(25.07 789.86) rotate(-171.16) scale(.99 1)"><tspan x="0" y="0">R</tspan></text>
    <text class="cls-1" transform="translate(19.69 788.86) rotate(-158.83) scale(.99 1)"><tspan x="0" y="0"> </tspan></text>
    <text class="cls-1" transform="translate(17.73 788.35) rotate(-146.33) scale(.99 1)"><tspan x="0" y="0">C</tspan></text>
    <text class="cls-1" transform="translate(13.07 785.35) rotate(-127.86) scale(.99 1)"><tspan x="0" y="0">O</tspan></text>
    <text class="cls-1" transform="translate(9.4 780.7) rotate(-108.97) scale(.99 1)"><tspan x="0" y="0">D</tspan></text>
    <text class="cls-1" transform="translate(7.69 775.17) rotate(-95.93) scale(.99 1)"><tspan x="0" y="0">I</tspan></text>
    <text class="cls-1" transform="translate(7.47 772.96) rotate(-90) scale(.99 1)"><tspan x="0" y="0">N</tspan><tspan x="6.6" y="0">G</tspan><tspan x="12.91" y="0"> </tspan><tspan x="15.21" y="0">B</tspan><tspan x="21.13" y="0">U</tspan><tspan x="27.57" y="0">S</tspan><tspan x="33.32" y="0">I</tspan><tspan x="35.72" y="0">N</tspan><tspan x="42.33" y="0">E</tspan><tspan x="47.62" y="0">S</tspan><tspan x="53.47" y="0">S</tspan><tspan x="59.2" y="0"> </tspan><tspan x="61.48" y="0">-</tspan><tspan x="64.49" y="0"> </tspan><tspan x="66.79" y="0">J</tspan><tspan x="69.95" y="0">U</tspan><tspan x="76.41" y="0">S</tspan><tspan x="82.03" y="0">T</tspan><tspan x="86.94" y="0"> </tspan><tspan x="89.24" y="0">A</tspan><tspan x="95.18" y="0">N</tspan><tspan x="101.78" y="0">O</tspan><tspan x="107.98" y="0">T</tspan><tspan x="112.91" y="0">H</tspan><tspan x="119.22" y="0">E</tspan><tspan x="124.52" y="0">R</tspan><tspan x="130.42" y="0"> </tspan><tspan x="132.71" y="0">C</tspan><tspan x="138.71" y="0">O</tspan><tspan x="145.15" y="0">D</tspan><tspan x="151.34" y="0">I</tspan><tspan x="153.75" y="0">N</tspan><tspan x="160.35" y="0">G</tspan><tspan x="166.65" y="0"> </tspan><tspan x="168.95" y="0">B</tspan><tspan x="174.88" y="0">U</tspan><tspan x="181.34" y="0">S</tspan><tspan x="187.07" y="0">I</tspan><tspan x="189.49" y="0">N</tspan><tspan x="196.1" y="0">E</tspan><tspan x="201.39" y="0">S</tspan><tspan x="207.2" y="0">S</tspan><tspan x="212.95" y="0"> </tspan><tspan x="215.26" y="0">-</tspan><tspan x="218.24" y="0"> </tspan><tspan x="220.55" y="0">J</tspan><tspan x="223.73" y="0">U</tspan><tspan x="230.17" y="0">S</tspan><tspan x="235.79" y="0">T</tspan><tspan x="240.71" y="0"> </tspan><tspan x="243" y="0">A</tspan><tspan x="248.93" y="0">N</tspan><tspan x="255.55" y="0">O</tspan><tspan x="261.75" y="0">T</tspan><tspan x="266.67" y="0">H</tspan><tspan x="272.99" y="0">E</tspan><tspan x="278.32" y="0">R</tspan><tspan x="284.18" y="0"> </tspan><tspan x="286.48" y="0">C</tspan><tspan x="292.5" y="0">O</tspan><tspan x="298.95" y="0">D</tspan><tspan x="305.12" y="0">I</tspan><tspan x="307.52" y="0">N</tspan><tspan x="314.13" y="0">G</tspan><tspan x="320.42" y="0"> </tspan><tspan x="322.73" y="0">B</tspan><tspan x="328.67" y="0">U</tspan><tspan x="335.13" y="0">S</tspan><tspan x="340.83" y="0">I</tspan><tspan x="343.26" y="0">N</tspan><tspan x="349.86" y="0">E</tspan><tspan x="355.15" y="0">S</tspan><tspan x="360.98" y="0">S</tspan><tspan x="366.72" y="0"> </tspan><tspan x="369.02" y="0">-</tspan><tspan x="372.03" y="0"> </tspan><tspan x="374.32" y="0">J</tspan><tspan x="377.48" y="0">U</tspan><tspan x="383.95" y="0">S</tspan><tspan x="389.56" y="0">T</tspan><tspan x="394.48" y="0"> </tspan><tspan x="396.78" y="0">A</tspan><tspan x="402.72" y="0">N</tspan><tspan x="409.31" y="0">O</tspan><tspan x="415.52" y="0">T</tspan><tspan x="420.42" y="0">H</tspan><tspan x="426.75" y="0">E</tspan><tspan x="432.08" y="0">R</tspan><tspan x="437.96" y="0"> </tspan><tspan x="440.25" y="0">C</tspan><tspan x="446.27" y="0">O</tspan><tspan x="452.7" y="0">D</tspan><tspan x="458.88" y="0">I</tspan><tspan x="461.3" y="0">N</tspan><tspan x="467.92" y="0">G</tspan><tspan x="474.21" y="0"> </tspan><tspan x="476.5" y="0">B</tspan><tspan x="482.41" y="0">U</tspan><tspan x="488.88" y="0">S</tspan><tspan x="494.6" y="0">I</tspan><tspan x="497.01" y="0">N</tspan><tspan x="503.64" y="0">E</tspan><tspan x="508.91" y="0">S</tspan><tspan x="514.76" y="0">S</tspan><tspan x="520.48" y="0"> </tspan><tspan x="522.78" y="0">-</tspan><tspan x="525.78" y="0"> </tspan><tspan x="528.09" y="0">J</tspan><tspan x="531.26" y="0">U</tspan><tspan x="537.71" y="0">S</tspan><tspan x="543.31" y="0">T</tspan><tspan x="548.24" y="0"> </tspan><tspan x="550.53" y="0">A</tspan><tspan x="556.47" y="0">N</tspan><tspan x="563.09" y="0">O</tspan><tspan x="569.28" y="0">T</tspan><tspan x="574.21" y="0">H</tspan><tspan x="580.53" y="0">E</tspan><tspan x="585.86" y="0">R</tspan><tspan x="591.73" y="0"> </tspan><tspan x="594.01" y="0">C</tspan><tspan x="600.03" y="0">O</tspan><tspan x="606.47" y="0">D</tspan><tspan x="612.64" y="0">I</tspan><tspan x="615.05" y="0">N</tspan><tspan x="621.68" y="0">G</tspan><tspan x="627.96" y="0"> </tspan><tspan x="630.27" y="0">B</tspan><tspan x="636.2" y="0">U</tspan><tspan x="642.64" y="0">S</tspan><tspan x="648.37" y="0">I</tspan><tspan x="650.78" y="0">N</tspan><tspan x="657.4" y="0">E</tspan><tspan x="662.69" y="0">S</tspan><tspan x="668.51" y="0">S</tspan><tspan x="674.25" y="0"> </tspan><tspan x="676.53" y="0">-</tspan><tspan x="679.56" y="0"> </tspan><tspan x="681.86" y="0">J</tspan><tspan x="685.01" y="0">U</tspan><tspan x="691.48" y="0">S</tspan><tspan x="697.07" y="0">T</tspan><tspan x="702" y="0"> </tspan><tspan x="704.31" y="0">A</tspan><tspan x="710.23" y="0">N</tspan><tspan x="716.85" y="0">O</tspan><tspan x="723.04" y="0">T</tspan><tspan x="727.97" y="0">H</tspan><tspan x="734.3" y="0">E</tspan><tspan x="739.6" y="0">R</tspan><tspan x="745.48" y="0"> </tspan><tspan x="747.76" y="0">C</tspan><tspan x="753.8" y="0">O</tspan></text>
    <text class="cls-1" transform="translate(7.24 23.85) rotate(-76.65) scale(.99 1)"><tspan x="0" y="0">D</tspan></text>
    <text class="cls-1" transform="translate(8.74 18.26) rotate(-63.66) scale(.99 1)"><tspan x="0" y="0">I</tspan></text>
    <text class="cls-1" transform="translate(9.42 16.28) rotate(-50.27) scale(.99 1)"><tspan x="0" y="0">N</tspan></text>
    <text class="cls-1" transform="translate(13.29 11.56) rotate(-31.09) scale(.99 1)"><tspan x="0" y="0">G</tspan></text>
    <text class="cls-1" transform="translate(18.43 8.68) rotate(-18.17) scale(.99 1)"><tspan x="0" y="0"> </tspan></text>
    <text class="cls-1" transform="translate(20.27 7.84) rotate(-5.66) scale(.99 1)"><tspan x="0" y="0">B</tspan></text>
    <text class="cls-1" transform="translate(25.96 7.47) scale(.99 1)"><tspan x="0" y="0">U</tspan><tspan x="6.43" y="0">S</tspan><tspan x="12.15" y="0">I</tspan><tspan x="14.58" y="0">N</tspan><tspan x="21.19" y="0">E</tspan><tspan x="26.48" y="0">S</tspan><tspan x="32.3" y="0">S</tspan><tspan x="38.05" y="0"> </tspan><tspan x="40.35" y="0">-</tspan><tspan x="43.34" y="0"> </tspan><tspan x="45.65" y="0">J</tspan><tspan x="48.81" y="0">U</tspan><tspan x="55.25" y="0">S</tspan><tspan x="60.87" y="0">T</tspan><tspan x="65.78" y="0"> </tspan><tspan x="68.09" y="0">A</tspan><tspan x="74.02" y="0">N</tspan><tspan x="80.64" y="0">O</tspan><tspan x="86.84" y="0">T</tspan><tspan x="91.76" y="0">H</tspan><tspan x="98.09" y="0">E</tspan><tspan x="103.4" y="0">R</tspan><tspan x="109.28" y="0"> </tspan><tspan x="111.57" y="0">C</tspan><tspan x="117.59" y="0">O</tspan><tspan x="124.02" y="0">D</tspan><tspan x="130.21" y="0">I</tspan><tspan x="132.6" y="0">N</tspan><tspan x="139.22" y="0">G</tspan><tspan x="145.51" y="0"> </tspan><tspan x="147.82" y="0">B</tspan><tspan x="153.75" y="0">U</tspan><tspan x="160.21" y="0">S</tspan><tspan x="165.92" y="0">I</tspan><tspan x="168.33" y="0">N</tspan><tspan x="174.96" y="0">E</tspan><tspan x="180.23" y="0">S</tspan><tspan x="186.06" y="0">S</tspan><tspan x="191.82" y="0"> </tspan><tspan x="194.1" y="0">-</tspan><tspan x="197.12" y="0"> </tspan><tspan x="199.4" y="0">J</tspan><tspan x="202.56" y="0">U</tspan><tspan x="209.03" y="0">S</tspan><tspan x="214.64" y="0">T</tspan><tspan x="219.56" y="0"> </tspan><tspan x="221.84" y="0">A</tspan><tspan x="227.78" y="0">N</tspan><tspan x="234.39" y="0">O</tspan><tspan x="240.59" y="0">T</tspan><tspan x="245.53" y="0">H</tspan><tspan x="251.84" y="0">E</tspan><tspan x="257.16" y="0">R</tspan><tspan x="263.04" y="0"> </tspan><tspan x="265.32" y="0">C</tspan><tspan x="271.35" y="0">O</tspan><tspan x="277.77" y="0">D</tspan><tspan x="283.95" y="0">I</tspan><tspan x="286.37" y="0">N</tspan><tspan x="292.98" y="0">G</tspan><tspan x="299.27" y="0"> </tspan><tspan x="301.57" y="0">B</tspan><tspan x="307.49" y="0">U</tspan><tspan x="313.95" y="0">S</tspan><tspan x="319.67" y="0">I</tspan><tspan x="322.08" y="0">N</tspan><tspan x="328.69" y="0">E</tspan></text>
    <text class="cls-1" transform="translate(354.99 7.25) rotate(7.84) scale(.99 1)"><tspan x="0" y="0">S</tspan></text>
    <text class="cls-1" transform="translate(360.33 7.95) rotate(25.55) scale(.99 1)"><tspan x="0" y="0">S</tspan></text>
    <text class="cls-1" transform="translate(365.09 10.39) rotate(37.52) scale(.99 1)"><tspan x="0" y="0"> </tspan></text>
    <text class="cls-1" transform="translate(366.77 11.63) rotate(45.43) scale(.99 1)"><tspan x="0" y="0">-</tspan></text>
    <text class="cls-1" transform="translate(368.7 13.61) rotate(53.24) scale(.99 1)"><tspan x="0" y="0"> </tspan></text>
    <text class="cls-1" transform="translate(369.98 15.24) rotate(61.41) scale(.99 1)"><tspan x="0" y="0">J</tspan></text>
    <text class="cls-1" transform="translate(371.54 17.61) rotate(75.93) scale(.99 1)"><tspan x="0" y="0">U</tspan></text>
    <text class="cls-1" transform="translate(372.83 23.46) rotate(90) scale(.99 1)"><tspan x="0" y="0">S</tspan><tspan x="5.64" y="0">T</tspan><tspan x="10.56" y="0"> </tspan><tspan x="12.83" y="0">A</tspan><tspan x="18.77" y="0">N</tspan><tspan x="25.38" y="0">O</tspan><tspan x="31.6" y="0">T</tspan><tspan x="36.5" y="0">H</tspan><tspan x="42.83" y="0">E</tspan><tspan x="48.15" y="0">R</tspan><tspan x="54.03" y="0"> </tspan><tspan x="56.32" y="0">C</tspan><tspan x="62.34" y="0">O</tspan><tspan x="68.79" y="0">D</tspan><tspan x="74.95" y="0">I</tspan><tspan x="77.36" y="0">N</tspan><tspan x="83.98" y="0">G</tspan><tspan x="90.27" y="0"> </tspan><tspan x="92.56" y="0">B</tspan><tspan x="98.49" y="0">U</tspan><tspan x="104.95" y="0">S</tspan><tspan x="110.69" y="0">I</tspan><tspan x="113.09" y="0">N</tspan><tspan x="119.68" y="0">E</tspan><tspan x="124.97" y="0">S</tspan><tspan x="130.8" y="0">S</tspan><tspan x="136.55" y="0"> </tspan><tspan x="138.83" y="0">-</tspan><tspan x="141.85" y="0"> </tspan><tspan x="144.14" y="0">J</tspan><tspan x="147.33" y="0">U</tspan><tspan x="153.77" y="0">S</tspan><tspan x="159.4" y="0">T</tspan><tspan x="164.31" y="0"> </tspan><tspan x="166.59" y="0">A</tspan><tspan x="172.55" y="0">N</tspan><tspan x="179.16" y="0">O</tspan><tspan x="185.36" y="0">T</tspan><tspan x="190.27" y="0">H</tspan><tspan x="196.59" y="0">E</tspan><tspan x="201.93" y="0">R</tspan><tspan x="207.78" y="0"> </tspan><tspan x="210.07" y="0">C</tspan><tspan x="216.08" y="0">O</tspan><tspan x="222.55" y="0">D</tspan><tspan x="228.71" y="0">I</tspan><tspan x="231.12" y="0">N</tspan><tspan x="237.75" y="0">G</tspan><tspan x="244.04" y="0"> </tspan><tspan x="246.33" y="0">B</tspan><tspan x="252.25" y="0">U</tspan><tspan x="258.72" y="0">S</tspan><tspan x="264.44" y="0">I</tspan><tspan x="266.87" y="0">N</tspan><tspan x="273.47" y="0">E</tspan><tspan x="278.76" y="0">S</tspan><tspan x="284.59" y="0">S</tspan><tspan x="290.33" y="0"> </tspan><tspan x="292.62" y="0">-</tspan><tspan x="295.62" y="0"> </tspan><tspan x="297.92" y="0">J</tspan><tspan x="301.09" y="0">U</tspan><tspan x="307.54" y="0">S</tspan><tspan x="313.17" y="0">T</tspan><tspan x="318.07" y="0"> </tspan><tspan x="320.38" y="0">A</tspan><tspan x="326.3" y="0">N</tspan><tspan x="332.93" y="0">O</tspan><tspan x="339.11" y="0">T</tspan><tspan x="344.04" y="0">H</tspan><tspan x="350.36" y="0">E</tspan><tspan x="355.69" y="0">R</tspan><tspan x="361.57" y="0"> </tspan><tspan x="363.85" y="0">C</tspan><tspan x="369.87" y="0">O</tspan><tspan x="376.31" y="0">D</tspan><tspan x="382.5" y="0">I</tspan><tspan x="384.9" y="0">N</tspan><tspan x="391.52" y="0">G</tspan><tspan x="397.82" y="0"> </tspan><tspan x="400.09" y="0">B</tspan><tspan x="406.04" y="0">U</tspan><tspan x="412.48" y="0">S</tspan><tspan x="418.22" y="0">I</tspan><tspan x="420.61" y="0">N</tspan><tspan x="427.22" y="0">E</tspan><tspan x="432.52" y="0">S</tspan><tspan x="438.35" y="0">S</tspan><tspan x="444.08" y="0"> </tspan><tspan x="446.4" y="0">-</tspan><tspan x="449.38" y="0"> </tspan><tspan x="451.68" y="0">J</tspan><tspan x="454.85" y="0">U</tspan><tspan x="461.29" y="0">S</tspan><tspan x="466.92" y="0">T</tspan><tspan x="471.85" y="0"> </tspan><tspan x="474.14" y="0">A</tspan><tspan x="480.06" y="0">N</tspan><tspan x="486.67" y="0">O</tspan><tspan x="492.89" y="0">T</tspan><tspan x="497.79" y="0">H</tspan><tspan x="504.14" y="0">E</tspan><tspan x="509.45" y="0">R</tspan><tspan x="515.33" y="0"> </tspan><tspan x="517.6" y="0">C</tspan><tspan x="523.64" y="0">O</tspan><tspan x="530.07" y="0">D</tspan><tspan x="536.26" y="0">I</tspan><tspan x="538.64" y="0">N</tspan><tspan x="545.27" y="0">G</tspan><tspan x="551.58" y="0"> </tspan><tspan x="553.88" y="0">B</tspan><tspan x="559.79" y="0">U</tspan><tspan x="566.23" y="0">S</tspan><tspan x="571.97" y="0">I</tspan><tspan x="574.38" y="0">N</tspan><tspan x="580.99" y="0">E</tspan><tspan x="586.27" y="0">S</tspan><tspan x="592.12" y="0">S</tspan><tspan x="597.85" y="0"> </tspan><tspan x="600.15" y="0">-</tspan><tspan x="603.15" y="0"> </tspan><tspan x="605.43" y="0">J</tspan><tspan x="608.6" y="0">U</tspan><tspan x="615.05" y="0">S</tspan><tspan x="620.68" y="0">T</tspan><tspan x="625.58" y="0"> </tspan><tspan x="627.89" y="0">A</tspan><tspan x="633.83" y="0">N</tspan><tspan x="640.44" y="0">O</tspan><tspan x="646.62" y="0">T</tspan><tspan x="651.54" y="0">H</tspan><tspan x="657.88" y="0">E</tspan><tspan x="663.2" y="0">R</tspan><tspan x="669.07" y="0"> </tspan><tspan x="671.35" y="0">C</tspan><tspan x="677.37" y="0">O</tspan><tspan x="683.81" y="0">D</tspan><tspan x="690.01" y="0">I</tspan><tspan x="692.41" y="0">N</tspan><tspan x="699.01" y="0">G</tspan><tspan x="705.3" y="0"> </tspan><tspan x="707.59" y="0">B</tspan><tspan x="713.52" y="0">U</tspan><tspan x="719.98" y="0">S</tspan><tspan x="725.7" y="0">I</tspan><tspan x="728.1" y="0">N</tspan><tspan x="734.74" y="0">E</tspan><tspan x="740.01" y="0">S</tspan><tspan x="745.84" y="0">S</tspan><tspan x="751.58" y="0"> </tspan><tspan x="753.88" y="0">-</tspan></text>
  </g>
</svg>